<?xml version="1.0" encoding="UTF-8"?>
<svg xmlns="http://www.w3.org/2000/svg" xmlns:xlink="http://www.w3.org/1999/xlink" width="179px" height="22px" version="1.1" viewBox="0 0 179 22">
    <g id="poweredByDreamlake" fill="none" fill-rule="evenodd">
        <g id="Group" fill="#757575" fill-rule="nonzero">
            <path id="DREAMLAKE" d="M 89.1 16 L 85.3 16 C 85.2 16 85.2 16 85.1 16 C 85.1 15.9 85.1 15.9 85.1 15.8 L 85.1 7.2 C 85.1 7.2 85.1 7.1 85.1 7.1 C 85.2 7 85.2 7 85.3 7 L 89.1 7 C 90.5 7 91.7 7.4 92.6 8.2 C 93.6 9.1 94 10.2 94 11.5 C 94 12.9 93.6 14 92.7 14.8 C 91.8 15.6 90.6 16 89.1 16 Z M 89.1 8.8 L 87.1 8.8 L 87.1 14.3 L 89.1 14.3 C 90 14.3 90.7 14.1 91.2 13.6 C 91.7 13.1 92 12.4 92 11.5 C 92 10.7 91.7 10 91.2 9.5 C 90.6 9 89.9 8.8 89.1 8.8 Z M 96.1 15.8 L 96.1 7.2 C 96.1 7.1 96.1 7.1 96.1 7 C 96.1 7 96.2 7 96.2 7 L 100.4 7 C 101.5 7 102.4 7.3 103.1 7.8 C 103.8 8.4 104.1 9.2 104.1 10.2 C 104.1 10.8 104 11.4 103.6 11.8 C 103.2 12.3 102.7 12.6 102.1 12.9 L 102.1 12.9 C 102.3 13.1 102.5 13.3 102.6 13.5 L 104.1 15.7 C 104.2 15.8 104.2 15.8 104.2 15.9 C 104.2 16 104.2 16 104.1 16 L 102.1 16 C 102 16 101.9 16 101.9 15.8 L 100 13.2 L 98.1 13.2 L 98.1 15.8 C 98.1 15.9 98.1 15.9 98 16 C 98 16 98 16 97.9 16 L 96.3 16 C 96.2 16 96.2 16 96.1 16 C 96.1 15.9 96.1 15.9 96.1 15.8 Z M 100.3 8.7 L 98.1 8.7 L 98.1 11.5 L 100.3 11.5 C 100.8 11.5 101.3 11.4 101.6 11.2 C 102 10.9 102.1 10.6 102.1 10.1 C 102.1 9.7 102 9.4 101.6 9.1 C 101.3 8.8 100.8 8.7 100.3 8.7 Z M 113 12.3 L 108.3 12.3 L 108.3 14.3 L 113.5 14.3 C 113.6 14.3 113.6 14.3 113.7 14.4 C 113.7 14.4 113.8 14.5 113.8 14.5 L 113.8 15.8 C 113.8 15.9 113.7 15.9 113.7 16 C 113.6 16 113.6 16 113.6 16 L 106.4 16 C 106.4 16 106.3 16 106.3 16 C 106.3 15.9 106.3 15.9 106.3 15.8 L 106.3 7.2 C 106.3 7.2 106.3 7.1 106.3 7.1 C 106.3 7 106.4 7 106.4 7 L 113.5 7 C 113.5 7 113.6 7 113.6 7.1 C 113.6 7.1 113.7 7.2 113.7 7.2 L 113.7 8.5 C 113.7 8.5 113.7 8.6 113.6 8.6 C 113.6 8.7 113.5 8.7 113.5 8.7 L 108.3 8.7 L 108.3 10.5 L 113 10.5 C 113.1 10.5 113.1 10.6 113.2 10.6 C 113.2 10.7 113.2 10.7 113.2 10.8 L 113.2 12 C 113.2 12.1 113.2 12.1 113.2 12.2 C 113.1 12.2 113.1 12.3 113 12.3 Z M 122.8 15.8 L 122.1 14.4 L 117.7 14.4 L 117.1 15.8 C 117 15.9 116.9 16 116.8 16 L 115 16 C 114.9 16 114.9 16 114.9 15.9 C 114.9 15.8 114.9 15.8 114.9 15.7 L 119.2 7 L 120.7 7 L 125 15.7 C 125 15.8 125 15.8 125 15.9 C 125 16 125 16 124.9 16 L 123.1 16 C 123 16 122.8 15.9 122.8 15.8 Z M 119.3 11.2 L 118.4 12.8 L 121.4 12.8 L 120.6 11.2 C 120.5 11 120.4 10.8 120.3 10.5 C 120.2 10.2 120.1 10 120.1 9.8 L 120 9.6 L 119.9 9.6 C 119.7 10.2 119.5 10.8 119.3 11.2 Z M 135.7 7 L 137 7 C 137.1 7 137.1 7 137.1 7.1 C 137.2 7.1 137.2 7.2 137.2 7.2 L 137.2 15.8 C 137.2 15.9 137.2 15.9 137.1 16 C 137.1 16 137.1 16 137 16 L 135.3 16 C 135.3 16 135.2 16 135.2 16 C 135.2 15.9 135.2 15.9 135.2 15.8 L 135.2 10.3 L 135.1 10.3 C 135 10.6 134.8 10.9 134.6 11.3 L 131.9 15 L 129.2 11.3 C 129.1 11.1 129 11 128.9 10.8 C 128.8 10.7 128.8 10.5 128.8 10.5 L 128.7 10.3 L 128.7 10.3 L 128.7 15.8 C 128.7 15.9 128.6 15.9 128.6 16 C 128.6 16 128.5 16 128.5 16 L 126.8 16 C 126.8 16 126.7 16 126.7 16 C 126.7 15.9 126.6 15.9 126.6 15.8 L 126.6 7.2 C 126.6 7.2 126.7 7.1 126.7 7.1 C 126.7 7 126.8 7 126.8 7 L 128.1 7 C 128.2 7 128.3 7 128.4 7.2 L 131.9 12 L 131.9 12 L 135.4 7.2 C 135.5 7 135.6 7 135.7 7 Z M 141.8 7.2 L 141.8 14.3 L 146.2 14.3 C 146.3 14.3 146.3 14.3 146.4 14.4 C 146.4 14.4 146.4 14.5 146.4 14.5 L 146.4 15.8 C 146.4 15.8 146.4 15.9 146.4 15.9 C 146.3 16 146.3 16 146.2 16 L 139.9 16 C 139.9 16 139.8 16 139.8 16 C 139.8 15.9 139.8 15.9 139.8 15.8 L 139.8 7.2 C 139.8 7.1 139.8 7.1 139.8 7 C 139.8 7 139.9 7 139.9 7 L 141.6 7 C 141.7 7 141.7 7 141.7 7 C 141.8 7.1 141.8 7.1 141.8 7.2 Z M 155.2 15.8 L 154.5 14.4 L 150.2 14.4 L 149.5 15.8 C 149.4 15.9 149.3 16 149.2 16 L 147.4 16 C 147.3 16 147.3 16 147.3 15.9 C 147.3 15.8 147.3 15.8 147.3 15.7 L 151.6 7 L 153.1 7 L 157.4 15.7 C 157.4 15.8 157.4 15.8 157.4 15.9 C 157.4 16 157.4 16 157.3 16 L 155.5 16 C 155.4 16 155.3 15.9 155.2 15.8 Z M 151.7 11.2 L 150.9 12.8 L 153.8 12.8 L 153 11.2 C 152.9 11 152.8 10.8 152.7 10.5 C 152.6 10.2 152.6 10 152.5 9.8 L 152.4 9.6 L 152.3 9.6 C 152.1 10.2 151.9 10.8 151.7 11.2 Z M 167.7 7.3 L 163.8 11.1 L 167.9 15.7 C 167.9 15.8 168 15.8 168 15.9 C 168 16 167.9 16 167.8 16 L 165.7 16 C 165.6 16 165.4 15.9 165.4 15.8 L 162.4 12.4 L 161.1 13.7 L 161.1 15.8 C 161.1 15.8 161.1 15.9 161 15.9 C 161 16 161 16 160.9 16 L 159.2 16 C 159.2 16 159.1 16 159.1 15.9 C 159.1 15.9 159.1 15.8 159.1 15.8 L 159.1 7.2 C 159.1 7.1 159.1 7.1 159.1 7 C 159.1 7 159.2 7 159.2 7 L 160.9 7 C 161 7 161 7 161 7 C 161.1 7.1 161.1 7.1 161.1 7.2 L 161.1 11.1 L 161.1 11.1 C 161.3 10.9 161.5 10.8 161.7 10.6 L 165.2 7.2 C 165.3 7 165.4 7 165.6 7 L 167.7 7 C 167.8 7 167.8 7 167.8 7.1 C 167.8 7.1 167.8 7.2 167.7 7.3 Z M 176.4 12.3 L 171.6 12.3 L 171.6 14.3 L 176.9 14.3 C 176.9 14.3 177 14.3 177 14.4 C 177.1 14.4 177.1 14.5 177.1 14.5 L 177.1 15.8 C 177.1 15.9 177.1 15.9 177 16 C 177 16 176.9 16 176.9 16 L 169.8 16 C 169.7 16 169.7 16 169.6 16 C 169.6 15.9 169.6 15.9 169.6 15.8 L 169.6 7.2 C 169.6 7.2 169.6 7.1 169.6 7.1 C 169.7 7 169.7 7 169.8 7 L 176.8 7 C 176.9 7 176.9 7 176.9 7.1 C 177 7.1 177 7.2 177 7.2 L 177 8.5 C 177 8.5 177 8.6 177 8.6 C 176.9 8.7 176.9 8.7 176.8 8.7 L 171.6 8.7 L 171.6 10.5 L 176.4 10.5 C 176.4 10.5 176.5 10.6 176.5 10.6 C 176.6 10.7 176.6 10.7 176.6 10.8 L 176.6 12 C 176.6 12.1 176.6 12.1 176.5 12.2 C 176.5 12.2 176.4 12.3 176.4 12.3 Z"/>
            <path id="Poweredby" d="M 1.1 15.4 L 0.5 15.4 C 0.4 15.4 0.4 15.4 0.4 15.3 L 0.4 6.6 C 0.4 6.5 0.4 6.5 0.5 6.5 L 4.1 6.5 C 5.2 6.5 6.1 6.7 6.8 7.3 C 7.4 7.9 7.8 8.7 7.8 9.6 C 7.8 10.6 7.4 11.4 6.8 12 C 6.1 12.5 5.2 12.8 4.2 12.8 L 1.3 12.8 L 1.3 15.3 C 1.3 15.4 1.2 15.4 1.1 15.4 Z M 4.1 7.2 L 1.2 7.2 L 1.2 12.1 L 4.1 12.1 C 5 12.1 5.6 11.9 6.1 11.4 C 6.7 11 6.9 10.4 6.9 9.6 C 6.9 8.9 6.7 8.3 6.1 7.9 C 5.6 7.4 5 7.2 4.1 7.2 Z M 12.7 9.1 C 13.6 9.1 14.4 9.4 15 10 C 15.7 10.6 16 11.4 16 12.4 C 16 13.4 15.7 14.1 15.1 14.7 C 14.4 15.3 13.6 15.6 12.7 15.6 C 11.7 15.6 10.9 15.3 10.3 14.7 C 9.6 14.1 9.3 13.4 9.3 12.4 C 9.3 11.4 9.7 10.6 10.3 10 C 10.9 9.4 11.7 9.1 12.7 9.1 L 12.7 9.1 Z M 12.7 9.9 L 12.7 9.9 C 12 9.9 11.4 10.1 10.9 10.5 C 10.4 11 10.2 11.6 10.2 12.3 C 10.2 13.1 10.4 13.7 10.9 14.2 C 11.4 14.6 12 14.8 12.7 14.8 C 13.4 14.8 14 14.6 14.5 14.2 C 14.9 13.7 15.2 13.1 15.2 12.4 C 15.2 11.6 14.9 11 14.5 10.6 C 14 10.1 13.4 9.9 12.7 9.9 Z M 24 15.4 L 22.4 11.5 L 22.1 10.7 L 22.1 10.7 C 22 11.1 21.9 11.3 21.8 11.5 L 20.2 15.4 L 19.9 15.4 L 17.3 9.5 C 17.3 9.4 17.3 9.4 17.3 9.4 C 17.3 9.3 17.3 9.3 17.4 9.3 L 18 9.3 C 18.1 9.3 18.1 9.4 18.2 9.5 L 19.7 12.9 C 19.7 13.1 19.8 13.3 19.9 13.4 C 19.9 13.6 20 13.7 20 13.8 L 20 14 L 20.1 14 C 20.1 13.6 20.3 13.3 20.4 12.9 L 21.9 9.3 L 22.3 9.3 L 23.8 12.9 L 24.1 14 L 24.2 14 C 24.3 13.7 24.4 13.3 24.5 12.9 L 26 9.5 C 26.1 9.4 26.1 9.3 26.2 9.3 L 26.8 9.3 C 26.9 9.3 26.9 9.3 26.9 9.4 C 26.9 9.4 26.9 9.4 26.9 9.5 L 24.3 15.4 L 24 15.4 Z M 34.7 12.6 L 29 12.6 C 29.1 13.3 29.3 13.9 29.8 14.3 C 30.3 14.6 30.9 14.8 31.6 14.8 C 32.5 14.8 33.3 14.5 33.9 13.8 C 34 13.8 34 13.8 34.1 13.8 C 34.1 13.8 34.2 13.8 34.2 13.8 L 34.5 14.1 C 34.5 14.1 34.5 14.2 34.5 14.2 C 34.5 14.3 34.5 14.4 34.4 14.4 C 33.7 15.2 32.8 15.6 31.6 15.6 C 30.6 15.6 29.8 15.3 29.1 14.7 C 28.5 14.1 28.1 13.3 28.1 12.4 C 28.1 11.4 28.5 10.7 29.1 10.1 C 29.7 9.5 30.5 9.1 31.5 9.1 C 32.5 9.1 33.3 9.4 33.9 10 C 34.4 10.5 34.8 11.2 34.7 12 L 34.7 12.6 Z M 31.5 9.9 C 30.9 9.9 30.4 10 29.9 10.4 C 29.4 10.7 29.1 11.2 29 11.9 L 33.8 11.9 C 33.8 11.3 33.6 10.8 33.2 10.4 C 32.8 10.1 32.2 9.9 31.5 9.9 Z M 37.8 10.4 L 37.8 10.4 C 38.1 10 38.4 9.7 38.9 9.5 C 39.3 9.2 39.7 9.1 40.1 9.1 C 40.8 9.1 41.3 9.3 41.6 9.7 C 41.9 10 42.1 10.5 42.1 11.2 L 42.1 11.5 C 42.1 11.6 42.1 11.6 42.1 11.6 C 42 11.6 42 11.7 42 11.7 L 41.4 11.7 C 41.4 11.7 41.4 11.6 41.4 11.6 C 41.3 11.6 41.3 11.6 41.3 11.5 L 41.3 11.2 C 41.3 10.8 41.2 10.5 41 10.2 C 40.7 10 40.4 9.9 40 9.9 C 39.6 9.9 39.1 10 38.7 10.4 C 38.3 10.7 38 11.1 37.8 11.6 L 37.8 15.3 C 37.8 15.3 37.8 15.3 37.8 15.4 C 37.7 15.4 37.7 15.4 37.7 15.4 L 37.1 15.4 C 37.1 15.4 37.1 15.4 37 15.4 C 37 15.3 37 15.3 37 15.3 L 37 9.5 C 37 9.4 37 9.4 37 9.3 C 37.1 9.3 37.1 9.3 37.1 9.3 L 37.5 9.3 C 37.6 9.3 37.6 9.4 37.7 9.5 L 37.8 10.4 Z M 50.3 12.6 L 44.6 12.6 C 44.6 13.3 44.9 13.9 45.4 14.3 C 45.9 14.6 46.5 14.8 47.2 14.8 C 48.1 14.8 48.8 14.5 49.5 13.8 C 49.6 13.8 49.6 13.8 49.7 13.8 C 49.7 13.8 49.8 13.8 49.8 13.8 L 50.1 14.1 C 50.1 14.1 50.1 14.2 50.1 14.2 C 50.1 14.3 50.1 14.4 50 14.4 C 49.3 15.2 48.3 15.6 47.2 15.6 C 46.2 15.6 45.3 15.3 44.7 14.7 C 44 14.1 43.7 13.3 43.7 12.4 C 43.7 11.4 44 10.7 44.6 10.1 C 45.3 9.5 46.1 9.1 47.1 9.1 C 48.1 9.1 48.9 9.4 49.5 10 C 50 10.5 50.3 11.2 50.3 12 L 50.3 12.6 Z M 47.1 9.9 C 46.5 9.9 45.9 10 45.5 10.4 C 45 10.7 44.7 11.2 44.6 11.9 L 49.4 11.9 C 49.4 11.3 49.2 10.8 48.8 10.4 C 48.4 10.1 47.8 9.9 47.1 9.9 Z M 57.9 14.6 L 57.9 14.6 C 57.3 15.3 56.5 15.6 55.5 15.6 C 54.6 15.6 53.9 15.3 53.3 14.7 C 52.7 14.2 52.4 13.4 52.4 12.4 C 52.4 11.4 52.7 10.7 53.3 10.1 C 53.9 9.5 54.6 9.2 55.6 9.2 C 56.6 9.2 57.4 9.5 57.9 10.2 L 57.9 10.2 L 57.9 5.7 C 57.9 5.7 57.9 5.7 58 5.6 C 58 5.6 58 5.6 58 5.6 L 58.6 5.6 C 58.6 5.6 58.6 5.6 58.7 5.6 C 58.7 5.7 58.7 5.7 58.7 5.7 L 58.7 15.3 C 58.7 15.3 58.7 15.4 58.7 15.4 C 58.6 15.4 58.6 15.4 58.6 15.4 L 58.2 15.4 C 58.1 15.4 58 15.4 58 15.2 L 57.9 14.6 Z M 53.3 12.4 L 53.2 12.4 C 53.2 13.1 53.5 13.7 53.9 14.2 C 54.3 14.6 54.9 14.9 55.5 14.9 C 56.5 14.9 57.3 14.5 57.9 13.7 L 57.9 11.5 C 57.7 11 57.4 10.6 57 10.4 C 56.5 10.1 56.1 9.9 55.5 9.9 C 54.9 9.9 54.4 10.1 53.9 10.6 C 53.5 11 53.3 11.6 53.3 12.4 Z M 65.7 5.7 L 65.7 10.4 L 65.7 10.4 C 65.9 10 66.3 9.7 66.7 9.5 C 67.1 9.2 67.6 9.1 68.2 9.1 C 69.1 9.1 69.8 9.4 70.3 10 C 70.9 10.6 71.1 11.4 71.1 12.3 C 71.1 13.4 70.8 14.1 70.2 14.7 C 69.6 15.3 68.9 15.6 68 15.6 C 67.1 15.6 66.3 15.3 65.7 14.6 L 65.7 14.6 L 65.6 15.2 C 65.5 15.4 65.5 15.4 65.4 15.4 L 65 15.4 C 65 15.4 64.9 15.4 64.9 15.4 C 64.9 15.3 64.9 15.3 64.9 15.3 L 64.9 5.7 C 64.9 5.7 64.9 5.6 64.9 5.6 C 64.9 5.6 65 5.5 65 5.5 L 65.5 5.5 C 65.6 5.5 65.6 5.6 65.6 5.6 C 65.7 5.6 65.7 5.7 65.7 5.7 Z M 70.3 12.4 L 70.3 12.4 C 70.3 11.6 70.1 11 69.7 10.6 C 69.3 10.1 68.7 9.9 68.1 9.9 C 67.5 9.9 67 10 66.6 10.4 C 66.2 10.7 65.8 11.1 65.7 11.6 L 65.7 13.8 C 66.3 14.5 67.1 14.8 68 14.8 C 68.6 14.8 69.2 14.6 69.6 14.2 C 70.1 13.7 70.3 13.1 70.3 12.4 Z M 78.9 9.6 L 75 19.1 C 74.9 19.1 74.9 19.2 74.8 19.2 L 74.2 19.2 C 74.1 19.2 74.1 19.2 74.1 19.1 C 74.1 19.1 74.1 19 74.1 18.9 L 75.6 15.4 L 72.5 9.6 C 72.4 9.5 72.4 9.4 72.4 9.4 C 72.4 9.3 72.4 9.3 72.5 9.3 L 73.1 9.3 C 73.2 9.3 73.3 9.3 73.4 9.5 L 75.6 13.6 L 76 14.4 L 76 14.4 L 78 9.4 C 78.1 9.3 78.2 9.3 78.3 9.3 L 78.9 9.3 C 78.9 9.3 79 9.3 79 9.4 C 79 9.4 78.9 9.5 78.9 9.6 Z"/>
        </g>
    </g>
</svg>
